<svg xmlns="http://www.w3.org/2000/svg"  viewBox="0 0 64 64" width="26px" height="26px"><radialGradient id="RNghqv93EVGle3OisAgw1a" cx="32.001" cy="-10.5" r="31.259" gradientTransform="translate(0 42)" gradientUnits="userSpaceOnUse"><stop offset="0" stop-color="#f4e9c3"/><stop offset=".219" stop-color="#f8eecd"/><stop offset=".644" stop-color="#fdf4dc"/><stop offset="1" stop-color="#fff6e1"/></radialGradient><path fill="url(#RNghqv93EVGle3OisAgw1a)" d="M63.922,48.24c-0.34,1.64-1.87,2.76-3.54,2.76h-8.38c-1.21,0-2.18,1.08-1.97,2.34	c0.16,0.98,1.08,1.66,2.08,1.66h2.39c2.17,0,3.89,2,3.42,4.24c-0.34,1.64-1.86,2.76-3.53,2.76h-43.89c-2.17,0-3.89-2-3.42-4.24	c0.34-1.64,1.87-2.76,3.54-2.76h1.38c1.21,0,2.18-1.08,1.97-2.34c-0.16-0.98-1.08-1.66-2.57-1.66h-4.78c-1.67,0-3.2-1.12-3.54-2.76	C2.612,46,4.332,44,6.502,44h12.5v-8h-15c-1.1,0-2.1-0.45-2.83-1.17c-0.72-0.73-1.17-1.73-1.17-2.83c0-2.21,1.79-4,4-4h12.5	c1.24,0,2.37-0.5,3.18-1.32c0.82-0.81,1.32-1.94,1.32-3.18c0-2.49-2.01-4.5-4.5-4.5h-12c-2.17,0-3.89-2-3.42-4.24	c0.34-1.64,1.87-2.76,3.54-2.76h9.38c1.21,0,2.18-1.08,1.97-2.34C15.812,8.68,14.892,8,13.892,8h-6.39c-2.17,0-3.89-2-3.42-4.24	C4.422,2.12,5.942,1,7.612,1h50.89c2.17,0,3.89,2,3.42,4.24C61.582,6.88,60.052,8,58.382,8h-6.38c-1.21,0-2.18,1.08-1.97,2.34	c0.16,0.98,1.08,1.66,2.08,1.66h7.27c1.67,0,3.2,1.12,3.54,2.76c0.47,2.24-1.25,4.24-3.42,4.24h-11.5c-1.21,0-2.18,1.08-1.97,2.34	c0.16,0.98,1.08,1.66,2.08,1.66h12.39c2.17,0,3.89,2,3.42,4.24c-0.34,1.64-1.87,2.76-3.54,2.76h-19.38v14h19.5	C62.672,44,64.392,46,63.922,48.24z"/><linearGradient id="RNghqv93EVGle3OisAgw1b" x1="32" x2="32" y1="52" y2="-11.059" gradientUnits="userSpaceOnUse"><stop offset="0" stop-color="#685ddb"/><stop offset=".399" stop-color="#6b6bdf"/><stop offset="1" stop-color="#6e7ce4"/></linearGradient><path fill="url(#RNghqv93EVGle3OisAgw1b)" d="M53,17H11c-3.314,0-6,2.686-6,6v18c0,3.314,2.686,6,6,6h21l7.5,4.852	c0.858,0.515,1.856-0.41,1.409-1.305L39,47h14c3.314,0,6-2.686,6-6V23C59,19.686,56.314,17,53,17z"/><linearGradient id="RNghqv93EVGle3OisAgw1c" x1="15.25" x2="15.25" y1="57.752" y2="17.266" gradientUnits="userSpaceOnUse"><stop offset="0" stop-color="#685ddb"/><stop offset=".399" stop-color="#6b6bdf"/><stop offset="1" stop-color="#6e7ce4"/></linearGradient><path fill="url(#RNghqv93EVGle3OisAgw1c)" d="M5,23v6h14c0.83,0,1.5-0.67,1.5-1.5c0-0.83-0.67-1.5-1.5-1.5h-3.503c-1.1,0-2-0.9-2-2	c0-0.55,0.22-1.05,0.59-1.41c0.36-0.37,0.86-0.59,1.41-0.59h7.5c1.47,0,2.64-1.26,2.49-2.76c-0.13-1.3-1.32-2.24-2.63-2.24H11	C7.686,17,5,19.686,5,23z"/><linearGradient id="RNghqv93EVGle3OisAgw1d" x1="49.75" x2="49.75" y1="57.559" y2="35.939" gradientUnits="userSpaceOnUse"><stop offset="0" stop-color="#685ddb"/><stop offset=".399" stop-color="#6b6bdf"/><stop offset="1" stop-color="#6e7ce4"/></linearGradient><path fill="url(#RNghqv93EVGle3OisAgw1d)" d="M59,41v-6H48c-0.83,0-1.5,0.67-1.5,1.5c0,0.83,0.67,1.5,1.5,1.5h2.503c1.1,0,2,0.9,2,2	c0,0.55-0.22,1.05-0.59,1.41c-0.36,0.37-0.86,0.59-1.41,0.59h-7.5c-1.47,0-2.64,1.26-2.49,2.76c0.13,1.3,1.32,2.24,2.63,2.24H53	C56.314,47,59,44.314,59,41z"/><path fill="#fff" d="M50.792,27.515c0.047,0,0.151,0.006,0.317,0.043c0.391,0.088,0.639,0.226,0.937,0.784	c0.354,0.639,0.526,1.466,0.526,2.531c0,1.598-0.362,3.016-1.112,4.345c-0.807,1.439-1.397,1.439-1.68,1.439	c-0.047,0-0.151-0.006-0.317-0.043c-0.391-0.088-0.639-0.226-0.925-0.761C48.18,35.198,48,34.33,48,33.279	c0-1.599,0.359-3.006,1.101-4.303C49.932,27.515,50.535,27.515,50.792,27.515 M50.792,24.087c-1.909,0-3.458,1.064-4.671,3.192	c-1.033,1.808-1.55,3.808-1.55,6c0,1.639,0.318,3.042,0.954,4.213c0.715,1.341,1.769,2.149,3.181,2.469	c0.377,0.085,0.735,0.127,1.073,0.127c1.928,0,3.478-1.064,4.671-3.192c1.033-1.83,1.55-3.83,1.55-6.021	c0-1.659-0.318-3.042-0.954-4.192c-0.715-1.341-1.769-2.149-3.181-2.469C51.488,24.129,51.13,24.087,50.792,24.087L50.792,24.087z M37.077,27.515c0.047,0,0.151,0.006,0.306,0.041c0.381,0.087,0.653,0.237,0.947,0.787c0.354,0.638,0.526,1.465,0.526,2.53	c0,1.598-0.362,3.016-1.112,4.345c-0.807,1.439-1.397,1.439-1.68,1.439c-0.047,0-0.151-0.006-0.317-0.043	c-0.391-0.088-0.639-0.226-0.925-0.761c-0.358-0.656-0.538-1.523-0.538-2.575c0-1.599,0.359-3.006,1.101-4.303	C36.218,27.515,36.82,27.515,37.077,27.515 M37.077,24.087c-1.909,0-3.458,1.064-4.671,3.192c-1.033,1.808-1.55,3.808-1.55,6	c0,1.639,0.318,3.042,0.954,4.213c0.715,1.341,1.769,2.149,3.181,2.469c0.377,0.085,0.735,0.127,1.073,0.127	c1.928,0,3.478-1.064,4.671-3.192c1.033-1.83,1.55-3.83,1.55-6.021c0-1.659-0.318-3.042-0.954-4.192	c-0.715-1.341-1.789-2.149-3.181-2.469C37.773,24.129,37.416,24.087,37.077,24.087L37.077,24.087z M25.714,42.373	c-0.481,0-0.951-0.203-1.283-0.577c-2.51-2.833-4.051-6.554-4.96-9.535c-1.307,2.766-3.072,6.303-4.858,9.279	c-0.353,0.589-1.022,0.905-1.704,0.817c-0.681-0.095-1.24-0.586-1.419-1.249c-2.528-9.288-3.437-15.943-3.473-16.222	c-0.126-0.937,0.533-1.8,1.47-1.927c0.95-0.123,1.801,0.531,1.928,1.47c0.008,0.056,0.653,4.774,2.323,11.656	c2.535-4.809,4.661-9.754,4.688-9.817c0.305-0.709,1.05-1.13,1.806-1.023c0.763,0.103,1.365,0.703,1.469,1.466	c0.008,0.059,0.619,4.371,2.566,8.516c0.822-8.19,3.283-12.388,3.408-12.596c0.488-0.813,1.543-1.075,2.352-0.589	c0.813,0.487,1.075,1.541,0.589,2.352c-0.029,0.05-3.185,5.538-3.185,16.264c0,0.712-0.441,1.351-1.106,1.602	C26.123,42.336,25.918,42.373,25.714,42.373z"/></svg>